{"title":"Goreyan Nu Daffa Karo (2014) [Punjab] 1CD DVDSCR Rip Xvid Mp3 Te","uid":11028213,"size":737134679,"categoryP":"video","categoryS":"movies","magnet":"?xt=urn:btih:7013e17f3ac5297c6da4fd7c9e69e055280344ee&amp;dn=Goreyan+Nu+Daffa+Karo+%282014%29+%5BPunjab%5D+1CD+DVDSCR+Rip+Xvid+Mp3+Te&amp;tr=udp%3A%2F%2Ftracker.openbittorrent.com%3A80&amp;tr=udp%3A%2F%2Fopen.demonii.com%3A1337&amp;tr=udp%3A%2F%2Ftracker.coppersurfer.tk%3A6969&amp;tr=udp%3A%2F%2Fexodus.desync.com%3A6969","seeders":3,"leechers":1,"uploader":"inovai","files":17,"time":1410682648,"description":"Goreyan Nu Daffa Karo (2014) [Punjabi] 1CD DVDSCR Rip Xvid Mp3 TeamTNT Exclusive\n\nCover:\n &lt;a href=&quot;\nhttp://forum.primetimeshow.in/viewtopic.php?f=7&amp;t=676&quot; rel=&quot;nofollow&quot; target=&quot;_NEW&quot;&gt;\nhttp://forum.primetimeshow.in/viewtopic.php?f=7&amp;t=676&lt;/a&gt;\n\n\nMovie:............Goreyan Nu Daffa Karo\nSource: ..........DVDSCR @ TeamTNT\nYear:.............2014\n\nScreenshots:\n &lt;a href=&quot;\nhttp://m.primetimeshow.in/share-DC83_54153289.html&quot; rel=&quot;nofollow&quot; target=&quot;_NEW&quot;&gt;\nhttp://m.primetimeshow.in/share-DC83_54153289.html&lt;/a&gt;\n &lt;a href=&quot;\nhttp://m.primetimeshow.in/share-57AF_54153289.html&quot; rel=&quot;nofollow&quot; target=&quot;_NEW&quot;&gt;\nhttp://m.primetimeshow.in/share-57AF_54153289.html&lt;/a&gt;\n &lt;a href=&quot;\nhttp://m.primetimeshow.in/share-D907_54153289.html&quot; rel=&quot;nofollow&quot; target=&quot;_NEW&quot;&gt;\nhttp://m.primetimeshow.in/share-D907_54153289.html&lt;/a&gt;\n &lt;a href=&quot;\nhttp://m.primetimeshow.in/share-AE60_54153289.html&quot; rel=&quot;nofollow&quot; target=&quot;_NEW&quot;&gt;\nhttp://m.primetimeshow.in/share-AE60_54153289.html&lt;/a&gt;\n &lt;a href=&quot;\nhttp://m.primetimeshow.in/share-2A98_54153289.html&quot; rel=&quot;nofollow&quot; target=&quot;_NEW&quot;&gt;\nhttp://m.primetimeshow.in/share-2A98_54153289.html&lt;/a&gt;\n\nGeneral\nComplete name : D:Goreyan Nu Dafa Karo.avi\nFormat : AVI\nFormat/Info : Audio Video Interleave\nFile size : 695 MiB\nDuration : 1h 55mn\nOverall bit rate : 838 Kbps\n\nVideo\nID : 0\nFormat : MPEG-4 Visual\nFormat profile : Advanced Simple@L5\nFormat settings, BVOP : 2\nFormat settings, QPel : No\nFormat settings, GMC : No warppoints\nFormat settings, Matrix : Default (H.263)\nCodec ID : XVID\nCodec ID/Hint : XviD\nDuration : 1h 55mn\nBit rate : 735 Kbps\nWidth : 656 pixels\nHeight : 272 pixels\nDisplay aspect ratio : 2.40:1\nFrame rate : 29.970 fps\nColor space : YUV\nChroma subsampling : 4:2:0\nBit depth : 8 bits\nScan type : Progressive\nCompression mode : Lossy\nBits/(Pixel*Frame) : 0.137\nStream size : 609 MiB (88%)\nWriting library : XviD 1.2.1 (UTC 2008-12-04)\n\nAudio\nID : 1\nFormat : MPEG Audio\nFormat version : Version 1\nFormat profile : Layer 3\nMode : Joint stereo\nMode extension : MS Stereo\nCodec ID : 55\nCodec ID/Hint : MP3\nDuration : 1h 55mn\nBit rate mode : Constant\nBit rate : 96.0 Kbps\nChannel(s) : 2 channels\nSampling rate : 32.0 KHz\nCompression mode : Lossy\nStream size : 79.6 MiB (11%)\nAlignment : Aligned on interleaves\nInterleave, duration : 133 ms (4.00 video frames)\nInterleave, preload duration : 216 ms\nTitle : VTS_01_1 T01 2_0ch 192Kbps DELAY 0ms\nWriting library : LAME3.99r\nEncoding settings : -m j -V 4 -q 2 -lowpass 15.1 -b 96\n\nSample included in torrent\n\nThanks to TeamTNT !!\n\nSeed n Enjoy!!","torrent":{"xt":"urn:btih:7013e17f3ac5297c6da4fd7c9e69e055280344ee","amp;dn":"Goreyan+Nu+Daffa+Karo+%282014%29+%5BPunjab%5D+1CD+DVDSCR+Rip+Xvid+Mp3+Te","amp;tr":["udp%3A%2F%2Ftracker.openbittorrent.com%3A80","udp%3A%2F%2Fopen.demonii.com%3A1337","udp%3A%2F%2Ftracker.coppersurfer.tk%3A6969","udp%3A%2F%2Fexodus.desync.com%3A6969"],"infoHash":"7013e17f3ac5297c6da4fd7c9e69e055280344ee","infoHashBuffer":{"type":"Buffer","data":[112,19,225,127,58,197,41,124,109,164,253,124,158,105,224,85,40,3,68,238]},"announce":[],"urlList":[]}}